<svg width="323" height="89" viewBox="0 0 323 89" fill="none" xmlns="http://www.w3.org/2000/svg">
<circle cx="25.2324" cy="55.6716" r="25.2324" fill="#46E0FE"/>
<circle opacity="0.7" cx="40.6414" cy="33.3284" r="25.2324" fill="#1F55D7"/>
<circle cx="59.9028" cy="64.5318" r="5.97102" fill="#FDCC02"/>
<path d="M82.98 61H96.1502V45.1274H112.737V35.2497H96.1502V26.6145H114.477V16.1777H82.98V61ZM124.789 23.6325C128.361 23.6325 131.095 20.868 131.095 17.5755C131.095 14.2829 128.361 11.5184 124.789 11.5184C121.217 11.5184 118.484 14.2829 118.484 17.5755C118.484 20.868 121.217 23.6325 124.789 23.6325ZM118.422 61H131.157V26.7077H118.422V61ZM135.94 61H148.676V41.7416C148.676 38.5423 150.509 36.2126 153.522 36.2126C156.721 36.2126 158.336 38.3248 158.336 41.7727V61H171.071V38.9771C171.071 30.7457 166.847 25.9622 159.299 25.9622C154.112 25.9622 150.602 28.4471 148.924 33.0754H148.676V26.7077H135.94V61ZM176.414 61H208.035V50.5632H189.584V43.45H206.886V33.7587H189.584V26.6145H208.035V16.1777H176.414V61ZM223.535 61.4349C227.946 61.4349 231.145 59.6022 233.071 56.3407H233.32V61H246.055V37.6725C246.055 30.7147 239.687 25.9622 230.151 25.9622C220.149 25.9622 214.216 30.5283 213.688 37.5172L213.657 37.921H225.026L225.088 37.6104C225.368 36.2126 226.828 35.0633 229.437 35.0633C232.046 35.0633 233.32 36.3058 233.32 38.2938V39.6915L226.113 40.1575C216.981 40.7787 211.887 44.413 211.887 51.0291V51.0602C211.887 56.962 216.608 61.4349 223.535 61.4349ZM224.312 50.1283V50.0973C224.312 48.3889 225.523 47.3328 228.225 47.1464L233.32 46.7737V48.948C233.32 51.2155 231.238 52.8928 228.194 52.8928C225.834 52.8928 224.312 51.9299 224.312 50.1283ZM266.773 61.7455C276.713 61.7455 283.36 57.1483 283.36 49.7556V49.7245C283.36 44.5372 280.037 41.6484 272.644 40.2817L266.431 39.1324C263.325 38.5423 262.456 37.8589 262.456 36.6475V36.6164C262.456 35.1565 263.978 34.2868 266.307 34.2868C269.041 34.2868 270.563 35.8088 270.749 37.424L270.78 37.7036H282.335V37.4861C282.335 31.2427 276.93 25.9622 266.307 25.9622C256.336 25.9622 250.279 30.2177 250.279 37.3308V37.3619C250.279 42.6735 253.882 46.3077 260.685 47.5502L266.897 48.6995C269.724 49.2275 270.749 49.942 270.749 51.1844V51.2155C270.749 52.5822 269.227 53.4209 266.773 53.4209C263.915 53.4209 262.362 52.2405 261.865 50.2526L261.803 50.0041H249.503L249.534 50.2836C250.31 57.1173 255.964 61.7455 266.773 61.7455ZM303.799 61.7455C315.727 61.7455 319.64 54.7566 320.666 50.2836L320.759 49.8798H309.421L309.39 49.973C309.048 50.967 307.402 52.986 304.047 52.986C300.568 52.986 298.456 50.6564 298.332 46.7115H320.914V43.1084C320.914 32.6716 314.08 25.9622 303.395 25.9622C292.679 25.9622 285.907 32.6716 285.907 43.8228V43.8538C285.907 55.0051 292.679 61.7455 303.799 61.7455ZM303.737 34.7216C306.501 34.7216 308.427 36.4611 308.986 39.5052H298.487C299.046 36.4611 300.972 34.7216 303.737 34.7216Z" fill="#0A0A5D"/>
<path d="M81.1378 85H82.763V79.357H88.5324V77.9124H82.763V73.4342H89.047V71.9715H81.1378V85ZM91.548 74.021C92.0987 74.021 92.5321 73.5786 92.5321 73.0369C92.5321 72.4861 92.0987 72.0528 91.548 72.0528C91.0062 72.0528 90.5638 72.4861 90.5638 73.0369C90.5638 73.5786 91.0062 74.021 91.548 74.021ZM90.7625 85H92.3335V75.6101H90.7625V85ZM94.4733 85H96.0443V79.4744C96.0443 77.8763 97.0104 76.8199 98.4911 76.8199C99.9357 76.8199 100.649 77.6596 100.649 79.1855V85H102.22V78.9056C102.22 76.7658 101.028 75.4295 98.9696 75.4295C97.5431 75.4295 96.586 76.0706 96.0804 76.9464H96.0443V75.6101H94.4733V85ZM106.969 85.1806C108.224 85.1806 109.353 84.5034 109.903 83.4741H109.94V85H111.511V78.5083C111.511 76.6303 110.12 75.4295 107.899 75.4295C105.687 75.4295 104.342 76.6755 104.206 78.2194L104.197 78.3187H105.714L105.732 78.2375C105.913 77.3978 106.671 76.8199 107.881 76.8199C109.19 76.8199 109.94 77.5152 109.94 78.6618V79.4473L107.249 79.6008C105.091 79.7272 103.845 80.7294 103.845 82.3275V82.3455C103.845 84.052 105.1 85.1806 106.969 85.1806ZM105.452 82.3455V82.3275C105.452 81.4517 106.175 80.8919 107.43 80.8197L109.94 80.6662V81.4336C109.94 82.797 108.802 83.8172 107.321 83.8172C106.193 83.8172 105.452 83.2484 105.452 82.3455ZM113.506 85H115.077V79.4744C115.077 77.8763 116.043 76.8199 117.524 76.8199C118.968 76.8199 119.682 77.6596 119.682 79.1855V85H121.253V78.9056C121.253 76.7658 120.061 75.4295 118.002 75.4295C116.576 75.4295 115.619 76.0706 115.113 76.9464H115.077V75.6101H113.506V85ZM127.148 85.1806C129.27 85.1806 130.814 83.7992 131.067 82.0115L131.076 81.9483H129.532L129.514 82.0205C129.252 83.0678 128.43 83.7901 127.148 83.7901C125.523 83.7901 124.404 82.499 124.404 80.3141V80.305C124.404 78.1743 125.496 76.8199 127.13 76.8199C128.512 76.8199 129.27 77.6506 129.505 78.5896L129.523 78.6618H131.058L131.049 78.5896C130.85 76.9825 129.469 75.4295 127.13 75.4295C124.521 75.4295 122.796 77.3256 122.796 80.287V80.296C122.796 83.2845 124.485 85.1806 127.148 85.1806ZM136.385 85.1806C138.434 85.1806 139.969 83.9527 140.276 82.3997L140.294 82.3094H138.75L138.723 82.3907C138.452 83.1942 137.613 83.7901 136.421 83.7901C134.751 83.7901 133.685 82.6616 133.649 80.7294H140.412V80.1516C140.412 77.3346 138.85 75.4295 136.285 75.4295C133.721 75.4295 132.06 77.4249 132.06 80.3321V80.3412C132.06 83.2936 133.685 85.1806 136.385 85.1806ZM136.276 76.8199C137.649 76.8199 138.66 77.6777 138.813 79.5015H133.676C133.848 77.7499 134.913 76.8199 136.276 76.8199ZM146.036 85H147.553V74.9329H147.607L151.77 85H153.142L157.304 74.9329H157.359V85H158.875V71.9715H156.997L152.483 82.9505H152.429L147.914 71.9715H146.036V85ZM163.634 85.1806C164.889 85.1806 166.017 84.5034 166.568 83.4741H166.604V85H168.175V78.5083C168.175 76.6303 166.785 75.4295 164.564 75.4295C162.351 75.4295 161.006 76.6755 160.871 78.2194L160.862 78.3187H162.379L162.397 78.2375C162.577 77.3978 163.336 76.8199 164.545 76.8199C165.855 76.8199 166.604 77.5152 166.604 78.6618V79.4473L163.913 79.6008C161.756 79.7272 160.51 80.7294 160.51 82.3275V82.3455C160.51 84.052 161.765 85.1806 163.634 85.1806ZM162.117 82.3455V82.3275C162.117 81.4517 162.839 80.8919 164.094 80.8197L166.604 80.6662V81.4336C166.604 82.797 165.466 83.8172 163.986 83.8172C162.857 83.8172 162.117 83.2484 162.117 82.3455ZM173.701 85.1806C175.046 85.1806 176.093 84.5034 176.68 83.4109H176.716V85H178.287V71.9715H176.716V77.1811H176.68C176.093 76.0976 175.001 75.4295 173.674 75.4295C171.317 75.4295 169.71 77.3346 169.71 80.296V80.305C169.71 83.2665 171.299 85.1806 173.701 85.1806ZM174.008 83.7901C172.346 83.7901 171.317 82.4629 171.317 80.305V80.296C171.317 78.1562 172.346 76.8199 174.008 76.8199C175.588 76.8199 176.725 78.2013 176.725 80.296V80.305C176.725 82.4087 175.597 83.7901 174.008 83.7901ZM184.273 85.1806C186.323 85.1806 187.858 83.9527 188.165 82.3997L188.183 82.3094H186.639L186.612 82.3907C186.341 83.1942 185.501 83.7901 184.309 83.7901C182.639 83.7901 181.574 82.6616 181.538 80.7294H188.3V80.1516C188.3 77.3346 186.738 75.4295 184.174 75.4295C181.61 75.4295 179.949 77.4249 179.949 80.3321V80.3412C179.949 83.2936 181.574 85.1806 184.273 85.1806ZM184.165 76.8199C185.537 76.8199 186.549 77.6777 186.702 79.5015H181.565C181.736 77.7499 182.802 76.8199 184.165 76.8199ZM193.925 85H201.997V83.5373H195.55V79.0591H201.663V77.6145H195.55V73.4342H201.997V71.9715H193.925V85ZM206.647 85.1806C207.902 85.1806 209.03 84.5034 209.581 83.4741H209.617V85H211.188V78.5083C211.188 76.6303 209.798 75.4295 207.576 75.4295C205.364 75.4295 204.019 76.6755 203.884 78.2194L203.875 78.3187H205.392L205.41 78.2375C205.59 77.3978 206.349 76.8199 207.558 76.8199C208.868 76.8199 209.617 77.5152 209.617 78.6618V79.4473L206.926 79.6008C204.769 79.7272 203.523 80.7294 203.523 82.3275V82.3455C203.523 84.052 204.778 85.1806 206.647 85.1806ZM205.13 82.3455V82.3275C205.13 81.4517 205.852 80.8919 207.107 80.8197L209.617 80.6662V81.4336C209.617 82.797 208.479 83.8172 206.999 83.8172C205.87 83.8172 205.13 83.2484 205.13 82.3455ZM216.515 85.1806C218.61 85.1806 220.163 84.0249 220.163 82.3817V82.3726C220.163 81.0364 219.476 80.287 217.58 79.8265L216.091 79.4654C215.052 79.2126 214.628 78.7702 214.628 78.1291V78.1201C214.628 77.2894 215.332 76.7387 216.47 76.7387C217.635 76.7387 218.33 77.3436 218.456 78.2555L218.465 78.3187H219.964L219.955 78.2013C219.838 76.6303 218.528 75.4295 216.47 75.4295C214.438 75.4295 213.021 76.5762 213.021 78.1923V78.2013C213.021 79.5557 213.879 80.3773 215.648 80.8016L217.138 81.1628C218.203 81.4246 218.555 81.8038 218.555 82.481V82.49C218.555 83.3387 217.797 83.8714 216.524 83.8714C215.242 83.8714 214.547 83.3207 214.357 82.3817L214.339 82.2914H212.768L212.777 82.3726C212.967 84.052 214.303 85.1806 216.515 85.1806ZM222.7 88.1601C224.397 88.1601 225.219 87.3836 225.887 85.5869L229.552 75.6101H227.9L225.3 83.429H225.264L222.673 75.6101H220.993L224.478 85.009L224.289 85.5417C223.91 86.6071 223.359 86.8599 222.366 86.8599C222.176 86.8599 221.995 86.8328 221.86 86.8058V88.0878C222.059 88.1239 222.393 88.1601 222.7 88.1601Z" fill="#0A0A5D"/>
</svg>
